<svg width="800" height="600" viewBox="0 0 800 600" fill="none" xmlns="http://www.w3.org/2000/svg">
  <rect width="800" height="600" rx="20" fill="#F8FAFC" />
  <rect x="40" y="40" width="720" height="520" rx="16" fill="white" />
  <rect x="40" y="40" width="720" height="60" rx="8" fill="#F1F5F9" />
  <circle cx="80" cy="70" r="12" fill="#3B82F6" />
  <rect x="110" y="64" width="100" height="12" rx="6" fill="#CBD5E1" />
  <rect x="570" y="64" width="80" height="12" rx="6" fill="#CBD5E1" />
  <rect x="670" y="64" width="60" height="12" rx="6" fill="#3B82F6" />
  <rect x="60" y="120" width="240" height="180" rx="8" fill="#F1F5F9" />
  <path d="M80 240 L140 180 L200 220 L260 160" stroke="#3B82F6" stroke-width="3" stroke-linecap="round" />
  <path d="M80 210 L140 250 L200 190 L260 230" stroke="#8B5CF6" stroke-width="3" stroke-linecap="round" />
  <circle cx="140" cy="180" r="6" fill="#3B82F6" />
  <circle cx="200" cy="220" r="6" fill="#3B82F6" />
  <circle cx="140" cy="250" r="6" fill="#8B5CF6" />
  <circle cx="200" cy="190" r="6" fill="#8B5CF6" />
  <rect x="70" y="280" width="80" height="10" rx="5" fill="#CBD5E1" />
  <rect x="160" y="280" width="120" height="10" rx="5" fill="#94A3B8" />
  <rect x="320" y="120" width="420" height="180" rx="8" fill="#F1F5F9" />
  <rect x="340" y="140" width="60" height="140" rx="4" fill="#DBEAFE" />
  <rect x="420" y="170" width="60" height="110" rx="4" fill="#DBEAFE" />
  <rect x="500" y="150" width="60" height="130" rx="4" fill="#DBEAFE" />
  <rect x="580" y="190" width="60" height="90" rx="4" fill="#DBEAFE" />
  <rect x="660" y="160" width="60" height="120" rx="4" fill="#DBEAFE" />
  <rect x="340" y="140" width="60" height="100" rx="4" fill="#3B82F6" />
  <rect x="420" y="170" width="60" height="70" rx="4" fill="#3B82F6" />
  <rect x="500" y="150" width="60" height="90" rx="4" fill="#3B82F6" />
  <rect x="580" y="190" width="60" height="50" rx="4" fill="#3B82F6" />
  <rect x="660" y="160" width="60" height="80" rx="4" fill="#3B82F6" />
  <rect x="340" y="250" width="60" height="10" rx="5" fill="#CBD5E1" />
  <rect x="420" y="250" width="60" height="10" rx="5" fill="#CBD5E1" />
  <rect x="500" y="250" width="60" height="10" rx="5" fill="#CBD5E1" />
  <rect x="580" y="250" width="60" height="10" rx="5" fill="#CBD5E1" />
  <rect x="660" y="250" width="60" height="10" rx="5" fill="#CBD5E1" />
  <rect x="60" y="320" width="680" height="220" rx="8" fill="#F1F5F9" />
  <rect x="80" y="340" width="180" height="180" rx="6" fill="#DBEAFE" />
  <rect x="80" y="340" width="180" height="30" rx="6" fill="#3B82F6" />
  <rect x="100" y="350" width="100" height="10" rx="5" fill="white" />
  <rect x="100" y="380" width="140" height="10" rx="5" fill="#94A3B8" />
  <rect x="100" y="400" width="120" height="10" rx="5" fill="#94A3B8" />
  <rect x="100" y="420" width="130" height="10" rx="5" fill="#94A3B8" />
  <rect x="100" y="440" width="110" height="10" rx="5" fill="#94A3B8" />
  <rect x="100" y="460" width="140" height="10" rx="5" fill="#94A3B8" />
  <rect x="100" y="480" width="120" height="10" rx="5" fill="#94A3B8" />
  <rect x="100" y="500" width="80" height="10" rx="5" fill="#94A3B8" />
  <rect x="280" y="340" width="440" height="180" rx="6" fill="white" />
  <circle cx="350" cy="400" r="50" fill="#DBEAFE" />
  <path d="M350 400 L350 370 A30 30 0 0 1 376 400 Z" fill="#3B82F6" />
  <path d="M350 400 L376 400 A30 30 0 0 1 350 430 Z" fill="#8B5CF6" />
  <path d="M350 400 L350 430 A30 30 0 0 1 324 400 Z" fill="#10B981" />
  <path d="M350 400 L324 400 A30 30 0 0 1 350 370 Z" fill="#F59E0B" />
  <rect x="430" y="370" width="120" height="10" rx="5" fill="#CBD5E1" />
  <rect x="430" y="390" width="80" height="10" rx="5" fill="#3B82F6" />
  <rect x="430" y="410" width="60" height="10" rx="5" fill="#8B5CF6" />
  <rect x="430" y="430" width="40" height="10" rx="5" fill="#10B981" />
  <rect x="430" y="450" width="30" height="10" rx="5" fill="#F59E0B" />
  <circle cx="410" cy="395" r="4" fill="#3B82F6" />
  <circle cx="410" cy="415" r="4" fill="#8B5CF6" />
  <circle cx="410" cy="435" r="4" fill="#10B981" />
  <circle cx="410" cy="455" r="4" fill="#F59E0B" />
  <rect x="570" y="370" width="130" height="80" rx="6" fill="#F1F5F9" />
  <rect x="590" y="390" width="90" height="10" rx="5" fill="#94A3B8" />
  <rect x="590" y="410" width="70" height="10" rx="5" fill="#94A3B8" />
  <rect x="590" y="430" width="80" height="10" rx="5" fill="#94A3B8" />
  <rect x="570" y="470" width="130" height="30" rx="6" fill="#3B82F6" />
  <rect x="600" y="480" width="70" height="10" rx="5" fill="white" />
</svg>