<svg width="800" height="600" viewBox="0 0 800 600" fill="none" xmlns="http://www.w3.org/2000/svg">
  <rect width="800" height="600" rx="20" fill="#F9FAFB" />
  <defs>
    <linearGradient id="paint0_linear" x1="400" y1="50" x2="400" y2="550" gradientUnits="userSpaceOnUse">
      <stop stop-color="#3B82F6" stop-opacity="0.1" />
      <stop offset="1" stop-color="#3B82F6" stop-opacity="0" />
    </linearGradient>
  </defs>
  <rect x="100" y="50" width="600" height="500" rx="15" fill="url(#paint0_linear)" />
  
  <!-- Grid Lines -->
  <line x1="100" y1="150" x2="700" y2="150" stroke="#E5E7EB" stroke-width="1" />
  <line x1="100" y1="250" x2="700" y2="250" stroke="#E5E7EB" stroke-width="1" />
  <line x1="100" y1="350" x2="700" y2="350" stroke="#E5E7EB" stroke-width="1" />
  <line x1="100" y1="450" x2="700" y2="450" stroke="#E5E7EB" stroke-width="1" />
  
  <line x1="200" y1="50" x2="200" y2="550" stroke="#E5E7EB" stroke-width="1" />
  <line x1="300" y1="50" x2="300" y2="550" stroke="#E5E7EB" stroke-width="1" />
  <line x1="400" y1="50" x2="400" y2="550" stroke="#E5E7EB" stroke-width="1" />
  <line x1="500" y1="50" x2="500" y2="550" stroke="#E5E7EB" stroke-width="1" />
  <line x1="600" y1="50" x2="600" y2="550" stroke="#E5E7EB" stroke-width="1" />
  
  <!-- Main Chart Line -->
  <path d="M100,450 C150,420 180,350 200,300 C220,250 250,200 300,180 C350,160 370,250 400,230 C430,210 450,150 500,180 C550,210 600,150 650,130 C670,120 690,100 700,80" 
        stroke="#3B82F6" stroke-width="3" fill="none" stroke-linecap="round" />
  
  <!-- Gradient Area Under Line -->
  <path d="M100,450 C150,420 180,350 200,300 C220,250 250,200 300,180 C350,160 370,250 400,230 C430,210 450,150 500,180 C550,210 600,150 650,130 C670,120 690,100 700,80 L700,550 L100,550 Z" 
        fill="url(#paint1_linear)" />
  
  <defs>
    <linearGradient id="paint1_linear" x1="400" y1="180" x2="400" y2="550" gradientUnits="userSpaceOnUse">
      <stop stop-color="#3B82F6" stop-opacity="0.2" />
      <stop offset="1" stop-color="#3B82F6" stop-opacity="0.01" />
    </linearGradient>
  </defs>
  
  <!-- Data Points -->
  <circle cx="100" cy="450" r="6" fill="#3B82F6" />
  <circle cx="200" cy="300" r="6" fill="#3B82F6" />
  <circle cx="300" cy="180" r="6" fill="#3B82F6" />
  <circle cx="400" cy="230" r="6" fill="#3B82F6" />
  <circle cx="500" cy="180" r="6" fill="#3B82F6" />
  <circle cx="600" cy="150" r="6" fill="#3B82F6" />
  <circle cx="700" cy="80" r="6" fill="#3B82F6" />
  
  <!-- Second Line (Competitor) -->
  <path d="M100,480 C140,470 180,400 200,420 C240,450 260,350 300,340 C340,330 370,280 400,300 C430,320 460,250 500,240 C540,230 600,280 650,200 C670,170 690,150 700,120" 
        stroke="#8B5CF6" stroke-width="2" fill="none" stroke-linecap="round" stroke-dasharray="5,5" />
  
  <!-- Legend -->
  <rect x="550" y="70" width="120" height="60" rx="5" fill="white" stroke="#E5E7EB" stroke-width="1" />
  <line x1="570" y1="90" x2="590" y2="90" stroke="#3B82F6" stroke-width="2" />
  <text x="600" y="95" font-family="Arial" font-size="12" fill="#374151">Your Market</text>
  <line x1="570" y1="110" x2="590" y2="110" stroke="#8B5CF6" stroke-width="2" stroke-dasharray="5,5" />
  <text x="600" y="115" font-family="Arial" font-size="12" fill="#374151">Competitor</text>
  
  <!-- Labels -->
  <text x="400" y="580" font-family="Arial" font-size="14" font-weight="bold" fill="#374151" text-anchor="middle">Timeline (Months)</text>
  <text x="70" y="300" font-family="Arial" font-size="14" font-weight="bold" fill="#374151" transform="rotate(-90 70,300)" text-anchor="middle">Market Share (%)</text>
  
  <!-- Title -->
  <text x="140" y="80" font-family="Arial" font-size="18" font-weight="bold" fill="#1F2937">Market Analysis Dashboard 2023</text>
  
  <!-- Success Indicators -->
  <rect x="140" y="500" width="160" height="80" rx="8" fill="white" stroke="#E5E7EB" stroke-width="1" />
  <circle cx="170" cy="525" r="15" fill="#DBEAFE" />
  <path d="M165,525 L168,528 L175,521" stroke="#3B82F6" stroke-width="2" stroke-linecap="round" stroke-linejoin="round" />
  <text x="195" y="530" font-family="Arial" font-size="14" font-weight="bold" fill="#1F2937">24% Growth</text>
  <text x="195" y="550" font-family="Arial" font-size="12" fill="#6B7280">Year-over-Year</text>
  
  <rect x="320" y="500" width="160" height="80" rx="8" fill="white" stroke="#E5E7EB" stroke-width="1" />
  <circle cx="350" cy="525" r="15" fill="#EDE9FE" />
  <path d="M350,518 L350,532 M343,525 L357,525" stroke="#8B5CF6" stroke-width="2" stroke-linecap="round" />
  <text x="375" y="530" font-family="Arial" font-size="14" font-weight="bold" fill="#1F2937">New Markets</text>
  <text x="375" y="550" font-family="Arial" font-size="12" fill="#6B7280">3 Opportunities</text>
  
  <rect x="500" y="500" width="160" height="80" rx="8" fill="white" stroke="#E5E7EB" stroke-width="1" />
  <circle cx="530" cy="525" r="15" fill="#ECFDF5" />
  <path d="M530,530 L530,520 L540,525 L530,530" fill="#10B981" />
  <text x="555" y="530" font-family="Arial" font-size="14" font-weight="bold" fill="#1F2937">Trend Analysis</text>
  <text x="555" y="550" font-family="Arial" font-size="12" fill="#6B7280">Positive Forecast</text>
</svg>