<svg width="400" height="300" viewBox="0 0 400 300" xmlns="http://www.w3.org/2000/svg">
  <rect x="50" y="50" width="300" height="200" rx="10" fill="#FFFFFF" stroke="#E2E8F0" stroke-width="2"/>
  <line x1="100" y1="90" x2="100" y2="220" stroke="#E2E8F0" stroke-width="2"/>
  <line x1="100" y1="220" x2="320" y2="220" stroke="#E2E8F0" stroke-width="2"/>
  <path d="M100,180 L130,190 L160,150 L190,160 L220,120 L250,130 L280,100" fill="none" stroke="#3B82F6" stroke-width="3"/>
  <circle cx="130" cy="190" r="5" fill="#3B82F6"/>
  <circle cx="160" cy="150" r="5" fill="#3B82F6"/>
  <circle cx="190" cy="160" r="5" fill="#3B82F6"/>
  <circle cx="220" cy="120" r="5" fill="#3B82F6"/>
  <circle cx="250" cy="130" r="5" fill="#3B82F6"/>
  <circle cx="280" cy="100" r="5" fill="#3B82F6"/>
  <path d="M100,180 L130,170 L160,185 L190,175 L220,190 L250,180 L280,195" fill="none" stroke="#8B5CF6" stroke-width="3" stroke-dasharray="5,5"/>
  <circle cx="130" cy="170" r="5" fill="#8B5CF6"/>
  <circle cx="160" cy="185" r="5" fill="#8B5CF6"/>
  <circle cx="190" cy="175" r="5" fill="#8B5CF6"/>
  <circle cx="220" cy="190" r="5" fill="#8B5CF6"/>
  <circle cx="250" cy="180" r="5" fill="#8B5CF6"/>
  <circle cx="280" cy="195" r="5" fill="#8B5CF6"/>
  <text x="100" y="80" font-family="sans-serif" font-size="12" fill="#64748B">Market Trends</text>
  <text x="80" y="240" font-family="sans-serif" font-size="10" fill="#94A3B8">Jan</text>
  <text x="140" y="240" font-family="sans-serif" font-size="10" fill="#94A3B8">Feb</text>
  <text x="200" y="240" font-family="sans-serif" font-size="10" fill="#94A3B8">Mar</text>
  <text x="260" y="240" font-family="sans-serif" font-size="10" fill="#94A3B8">Apr</text>
  <rect x="290" y="70" width="15" height="15" fill="#3B82F6"/>
  <text x="310" y="83" font-family="sans-serif" font-size="10" fill="#64748B">Actual</text>
  <rect x="290" y="90" width="15" height="15" fill="#FFFFFF" stroke="#8B5CF6" stroke-width="2" stroke-dasharray="2,2"/>
  <text x="310" y="103" font-family="sans-serif" font-size="10" fill="#64748B">Forecast</text>
</svg>
